<?xml version="1.0" encoding="utf-8"?>
<!-- Generator: Adobe Illustrator 26.3.1, SVG Export Plug-In . SVG Version: 6.00 Build 0)  -->
<svg version="1.1" id="Layer_1" xmlns="http://www.w3.org/2000/svg" xmlns:xlink="http://www.w3.org/1999/xlink" x="0px" y="0px"
	 viewBox="0 0 152 152" style="enable-background:new 0 0 152 152;" xml:space="preserve">
<style type="text/css">
	.st0{fill-rule:evenodd;clip-rule:evenodd;fill:#FFFFFF;}
</style>
<g>
	<g id="temple">
		<path class="st0" d="M152,150v2H0v-2h28v-8H8v-20H0v-2h8V80h42v20h20v42H30v8h90v-8H80v-42h20V80h42v40h8V30h-8v40h-42V50H80V8h40
			V0h2v8h20v20h8V0h2V150z M150,150v-28h-8v20h-20v8H150z M82,30v18h18V30H82z M102,48h20v20h18V30h-20V10H82v18h20V48z M102,50v18
			h18V50H102z M122,28h18V10h-18V28z M68,120v-18H50v18H68z M48,102H28V82H10v38h20v20h38v-18H48V102z M48,100V82H30v18H48z M28,122
			H10v18h18V122z M82,122v18h38v-20h20V82h-18v20h-20v20H82z M100,102H82v18h18V102z M102,100h18V82h-18V100z M122,140v-18h18v18
			H122z M30,0h-2v8H8v20H0v2h8v40h42V50h20V8H30V0z M50,48h18V30H50V48z M68,28H48v20H28v20H10V30h20V10h38V28z M30,50h18v18H30V50z
			 M28,10H10v18h18V10z"/>
	</g>
</g>
</svg>
